<svg xmlns="http://www.w3.org/2000/svg" viewBox="24 118 132 132" font-family="'Fredoka','Trebuchet MS',sans-serif" role="img" aria-label="Donna">
  <defs>
    <radialGradient id="grape16" cx="35%" cy="30%" r="80%">
      <stop offset="0%" stop-color="#C684E8"/>
      <stop offset="100%" stop-color="#7A2EAE"/>
    </radialGradient>
  </defs>
  <g transform="translate(90,170)">
    <g transform="translate(4,4)">
      <path d="M -36 95 Q -36 65 0 65 Q 36 65 36 95 L 44 150 L -44 150 Z" fill="#2A1F38"/>
      <ellipse cx="0" cy="18" rx="40" ry="44" fill="#2A1F38"/>
      <path d="M -40 16 Q -42 -22 -22 -32 Q -2 -45 22 -34 Q 42 -22 42 14 Q 42 24 38 40 L 38 50 Q 26 60 10 56 L 8 40 Q -2 44 -14 40 L -16 53 Q -30 60 -40 42 Z" fill="#2A1F38"/>
    </g>
    <path d="M -36 95 Q -36 65 0 65 Q 36 65 36 95 L 44 150 L -44 150 Z" fill="url(#grape16)" stroke="#2A1F38" stroke-width="2.5" stroke-linejoin="round"/>
    <path d="M -8 70 L 0 92 L 8 70" fill="none" stroke="#2A1F38" stroke-width="2"/>
    <path d="M -12 72 L 0 86 L 12 72 L 12 66 L -12 66 Z" fill="#FEFCF3" stroke="#2A1F38" stroke-width="2"/>
    <rect x="-7" y="55" width="14" height="14" fill="#F2C9B0" stroke="#2A1F38" stroke-width="2"/>
    <ellipse cx="0" cy="18" rx="40" ry="44" fill="#F2C9B0" stroke="#2A1F38" stroke-width="2.5"/>
    <path d="M -40 16 Q -42 -22 -22 -32 Q -2 -45 22 -34 Q 42 -22 42 14 Q 42 24 38 40 L 38 50 Q 26 60 10 56 L 8 40 Q -2 44 -14 40 L -16 53 Q -30 60 -40 42 Z" fill="#C84B3A" stroke="#2A1F38" stroke-width="2.5"/>
    <ellipse cx="-12" cy="20" rx="3" ry="3.5" fill="#2A1F38"/>
    <ellipse cx="12" cy="20" rx="3" ry="3.5" fill="#2A1F38"/>
    <circle cx="-11" cy="19" r="1" fill="#FEFCF3"/>
    <circle cx="13" cy="19" r="1" fill="#FEFCF3"/>
    <path d="M -20 11 Q -14 8 -6 11" stroke="#2A1F38" stroke-width="2" fill="none" stroke-linecap="round"/>
    <path d="M 4 8 Q 12 4 20 11" stroke="#2A1F38" stroke-width="2" fill="none" stroke-linecap="round"/>
    <path d="M -10 36 Q 0 42 12 36" stroke="#2A1F38" stroke-width="2" fill="none" stroke-linecap="round"/>
    <path d="M -10 36 Q 0 40 12 36 Q 0 39 -10 36 Z" fill="#D63A2E"/>
    <circle cx="21" cy="34" r="1.3" fill="#2A1F38"/>
  </g>
</svg>
