<svg xmlns="http://www.w3.org/2000/svg" width="0" height="0" style="position:absolute" aria-hidden="true"><defs>
<symbol id="i-arrow-left" viewBox="0 0 24 24"><line x1="19" y1="12" x2="5" y2="12"/><polyline points="12 19 5 12 12 5"/></symbol>
<symbol id="i-settings" viewBox="0 0 24 24"><circle cx="12" cy="12" r="3"/><path d="M19.4 15a1.65 1.65 0 0 0 .33 1.82l.06.06a2 2 0 1 1-2.83 2.83l-.06-.06a1.65 1.65 0 0 0-1.82-.33 1.65 1.65 0 0 0-1 1.51V21a2 2 0 1 1-4 0v-.09A1.65 1.65 0 0 0 9 19.4a1.65 1.65 0 0 0-1.82.33l-.06.06a2 2 0 1 1-2.83-2.83l.06-.06A1.65 1.65 0 0 0 4.6 15a1.65 1.65 0 0 0-1.51-1H3a2 2 0 1 1 0-4h.09A1.65 1.65 0 0 0 4.6 9a1.65 1.65 0 0 0-.33-1.82l-.06-.06a2 2 0 1 1 2.83-2.83l.06.06A1.65 1.65 0 0 0 9 4.6a1.65 1.65 0 0 0 1-1.51V3a2 2 0 1 1 4 0v.09a1.65 1.65 0 0 0 1 1.51 1.65 1.65 0 0 0 1.82-.33l.06-.06a2 2 0 1 1 2.83 2.83l-.06.06A1.65 1.65 0 0 0 19.4 9c.14.5.55.87 1.06 1H21a2 2 0 1 1 0 4h-.09c-.51.13-.92.5-1.06 1z"/></symbol>
<symbol id="i-users" viewBox="0 0 24 24"><path d="M17 21v-2a4 4 0 0 0-4-4H5a4 4 0 0 0-4 4v2"/><circle cx="9" cy="7" r="4"/><path d="M23 21v-2a4 4 0 0 0-3-3.87"/><path d="M16 3.13a4 4 0 0 1 0 7.75"/></symbol>
<symbol id="i-mail" viewBox="0 0 24 24"><rect x="2" y="4" width="20" height="16" rx="2"/><polyline points="22,6 12,13 2,6"/></symbol>
<symbol id="i-mail-off" viewBox="0 0 24 24"><rect x="2" y="4" width="20" height="16" rx="2"/><line x1="2" y1="2" x2="22" y2="22"/></symbol>
<symbol id="i-plug" viewBox="0 0 24 24"><path d="M9 2v6M15 2v6"/><path d="M6 8h12v3a6 6 0 0 1-12 0z"/><path d="M12 17v5"/></symbol>
<symbol id="i-sparkles" viewBox="0 0 24 24"><path d="M12 3l1.8 4.2L18 9l-4.2 1.8L12 15l-1.8-4.2L6 9l4.2-1.8z"/><path d="M18.5 15l.9 2.1 2.1.9-2.1.9-.9 2.1-.9-2.1-2.1-.9 2.1-.9z"/></symbol>
<symbol id="i-shield" viewBox="0 0 24 24"><path d="M12 22s8-4 8-10V5l-8-3-8 3v7c0 6 8 10 8 10z"/><circle cx="12" cy="11" r="2"/><path d="M12 13v3"/></symbol>
<symbol id="i-alert" viewBox="0 0 24 24"><path d="M10.29 3.86L1.82 18a2 2 0 0 0 1.71 3h16.94a2 2 0 0 0 1.71-3L13.71 3.86a2 2 0 0 0-3.42 0z"/><line x1="12" y1="9" x2="12" y2="13"/><line x1="12" y1="17" x2="12.01" y2="17"/></symbol>
<symbol id="i-pencil" viewBox="0 0 24 24"><path d="M17 3a2.83 2.83 0 1 1 4 4L7.5 20.5 2 22l1.5-5.5z"/></symbol>
<symbol id="i-user-plus" viewBox="0 0 24 24"><path d="M16 21v-2a4 4 0 0 0-4-4H5a4 4 0 0 0-4 4v2"/><circle cx="8.5" cy="7" r="4"/><line x1="20" y1="8" x2="20" y2="14"/><line x1="23" y1="11" x2="17" y2="11"/></symbol>
<symbol id="i-user" viewBox="0 0 24 24"><path d="M20 21v-2a4 4 0 0 0-4-4H8a4 4 0 0 0-4 4v2"/><circle cx="12" cy="7" r="4"/></symbol>
<symbol id="i-chevron-down" viewBox="0 0 24 24"><polyline points="6 9 12 15 18 9"/></symbol>
<symbol id="i-chevron-right" viewBox="0 0 24 24"><polyline points="9 18 15 12 9 6"/></symbol>
<symbol id="i-dots" viewBox="0 0 24 24"><circle cx="12" cy="12" r="1.6" fill="currentColor" stroke="none"/><circle cx="19" cy="12" r="1.6" fill="currentColor" stroke="none"/><circle cx="5" cy="12" r="1.6" fill="currentColor" stroke="none"/></symbol>
<symbol id="i-link" viewBox="0 0 24 24"><path d="M10 13a5 5 0 0 0 7.54.54l3-3a5 5 0 0 0-7.07-7.07l-1.72 1.71"/><path d="M14 11a5 5 0 0 0-7.54-.54l-3 3a5 5 0 0 0 7.07 7.07l1.71-1.71"/></symbol>
<symbol id="i-plus" viewBox="0 0 24 24"><line x1="12" y1="5" x2="12" y2="19"/><line x1="5" y1="12" x2="19" y2="12"/></symbol>
<symbol id="i-broadcast" viewBox="0 0 24 24"><circle cx="12" cy="12" r="2"/><path d="M16.24 7.76a6 6 0 0 1 0 8.49"/><path d="M7.76 16.24a6 6 0 0 1 0-8.49"/><path d="M19.07 4.93a10 10 0 0 1 0 14.14"/><path d="M4.93 19.07a10 10 0 0 1 0-14.14"/></symbol>
<symbol id="i-cloud" viewBox="0 0 24 24"><path d="M18 10h-1.26A8 8 0 1 0 9 20h9a5 5 0 0 0 0-10z"/></symbol>
<symbol id="i-cpu" viewBox="0 0 24 24"><rect x="4" y="4" width="16" height="16" rx="2"/><rect x="9" y="9" width="6" height="6"/><line x1="9" y1="1" x2="9" y2="4"/><line x1="15" y1="1" x2="15" y2="4"/><line x1="9" y1="20" x2="9" y2="23"/><line x1="15" y1="20" x2="15" y2="23"/><line x1="20" y1="9" x2="23" y2="9"/><line x1="20" y1="14" x2="23" y2="14"/><line x1="1" y1="9" x2="4" y2="9"/><line x1="1" y1="14" x2="4" y2="14"/></symbol>
<symbol id="i-tool" viewBox="0 0 24 24"><path d="M14.7 6.3a1 1 0 0 0 0 1.4l1.6 1.6a1 1 0 0 0 1.4 0l3.77-3.77a6 6 0 0 1-7.94 7.94l-6.91 6.91a2.12 2.12 0 0 1-3-3l6.91-6.91a6 6 0 0 1 7.94-7.94l-3.76 3.76z"/></symbol>
<symbol id="i-hash" viewBox="0 0 24 24"><line x1="4" y1="9" x2="20" y2="9"/><line x1="4" y1="15" x2="20" y2="15"/><line x1="10" y1="3" x2="8" y2="21"/><line x1="16" y1="3" x2="14" y2="21"/></symbol>
<symbol id="i-brain" viewBox="0 0 24 24"><path d="M9.5 3A2.5 2.5 0 0 0 7 5.5v.5a2.5 2.5 0 0 0-1 4.77V13a3 3 0 0 0 3 3h2V3z"/><path d="M14.5 3A2.5 2.5 0 0 1 17 5.5v.5a2.5 2.5 0 0 1 1 4.77V13a3 3 0 0 1-3 3h-2V3z"/><path d="M12 16v5"/></symbol>
<symbol id="i-x" viewBox="0 0 24 24"><line x1="18" y1="6" x2="6" y2="18"/><line x1="6" y1="6" x2="18" y2="18"/></symbol>
<symbol id="i-moon" viewBox="0 0 24 24"><path d="M21 12.79A9 9 0 1 1 11.21 3 7 7 0 0 0 21 12.79z"/></symbol>
<symbol id="i-bell" viewBox="0 0 24 24"><path d="M18 8a6 6 0 0 0-12 0c0 7-3 9-3 9h18s-3-2-3-9"/><path d="M13.73 21a2 2 0 0 1-3.46 0"/></symbol>
<symbol id="i-sliders" viewBox="0 0 24 24"><line x1="4" y1="21" x2="4" y2="14"/><line x1="4" y1="10" x2="4" y2="3"/><line x1="12" y1="21" x2="12" y2="12"/><line x1="12" y1="8" x2="12" y2="3"/><line x1="20" y1="21" x2="20" y2="16"/><line x1="20" y1="12" x2="20" y2="3"/><line x1="1" y1="14" x2="7" y2="14"/><line x1="9" y1="8" x2="15" y2="8"/><line x1="17" y1="16" x2="23" y2="16"/></symbol>
<symbol id="i-key" viewBox="0 0 24 24"><path d="M21 2l-2 2m-7.61 7.61a5.5 5.5 0 1 1-7.778 7.778 5.5 5.5 0 0 1 7.777-7.777zm0 0L15.5 7.5m0 0l3 3L22 7l-3-3"/></symbol>
<symbol id="i-laptop" viewBox="0 0 24 24"><rect x="3" y="4" width="18" height="12" rx="2"/><line x1="2" y1="20" x2="22" y2="20"/></symbol>
<symbol id="i-search" viewBox="0 0 24 24"><circle cx="11" cy="11" r="7"/><line x1="21" y1="21" x2="16.65" y2="16.65"/></symbol>
<symbol id="i-lock" viewBox="0 0 24 24"><rect x="3" y="11" width="18" height="11" rx="2"/><path d="M7 11V7a5 5 0 0 1 10 0v4"/></symbol>
<symbol id="i-archive" viewBox="0 0 24 24"><rect x="2" y="3" width="20" height="5" rx="1"/><path d="M4 8v11a2 2 0 0 0 2 2h12a2 2 0 0 0 2-2V8"/><line x1="10" y1="12" x2="14" y2="12"/></symbol>
<symbol id="i-at" viewBox="0 0 24 24"><circle cx="12" cy="12" r="4"/><path d="M16 8v5a3 3 0 0 0 6 0v-1a10 10 0 1 0-3.92 7.94"/></symbol>
<symbol id="i-smile" viewBox="0 0 24 24"><circle cx="12" cy="12" r="10"/><path d="M8 14s1.5 2 4 2 4-2 4-2"/><line x1="9" y1="9" x2="9.01" y2="9"/><line x1="15" y1="9" x2="15.01" y2="9"/></symbol>
<symbol id="i-send" viewBox="0 0 24 24"><line x1="22" y1="2" x2="11" y2="13"/><polygon points="22 2 15 22 11 13 2 9 22 2"/></symbol>
</defs></svg>
